<mxfile host="app.diagrams.net" modified="2024-05-21T04:30:14.531Z" agent="Mozilla/5.0 (Windows NT 10.0; Win64; x64) AppleWebKit/537.36 (KHTML, like Gecko) Chrome/125.0.0.0 Safari/537.36 Edg/125.0.0.0" version="24.4.4" etag="fB1S-UrpjACgOeGWNX_I" type="github">
  <diagram name="第 1 页" id="_ARNZdyrsgc0PTq5K1At">
    <mxGraphModel>
      <root>
        <mxCell id="0" />
        <mxCell id="1" parent="0" />
      </root>
    </mxGraphModel>
  </diagram>
</mxfile>
